<?xml version="1.0" encoding="utf-8"?>
<!-- Generator: Adobe Illustrator 18.0.0, SVG Export Plug-In . SVG Version: 6.00 Build 0)  -->
<!DOCTYPE svg PUBLIC "-//W3C//DTD SVG 1.1//EN" "http://www.w3.org/Graphics/SVG/1.1/DTD/svg11.dtd">
<svg version="1.1" id="Layer_1" xmlns="http://www.w3.org/2000/svg" xmlns:xlink="http://www.w3.org/1999/xlink" x="0px" y="0px"
	 viewBox="0 0 432 432" enable-background="new 0 0 432 432" xml:space="preserve">
<g>
	<path fill="#000100" d="M298.2,129.1c-0.4,7.1-3.5,13.6-8.7,18.3c-5.3,4.7-12,7.1-19.1,6.8c-7.1-0.4-13.6-3.5-18.3-8.7
		c-4.7-5.3-7.1-12.1-6.8-19.1c0.1-1.9,0-3.8-0.4-5.6c0-0.1-0.1-0.3-0.1-0.4c-0.6-2.8-1.7-5.5-3.3-8c-0.1-0.1-0.2-0.3-0.2-0.4
		c-3.3-4.7-8.2-8.2-14.1-9.5c-0.2,0-0.3,0-0.5-0.1c-1-0.2-1.8-0.3-2.6-0.4c-0.3,0-0.6-0.1-0.9-0.1c-0.3,0-0.6,0-0.8,0
		c-0.8,0-1.6,0-2.6,0.1c-0.2,0-0.3,0-0.5,0c-9.5,1.1-17.4,8-19.8,17.2c0,0,0,0,0,0c-0.4,1.5-0.6,3-0.7,4.6c0,0,0,0.1,0,0.1
		l-2.7,52.4l-0.5,8.8v0l-5.4,102.8l-0.1,1.8c0,0,0,0,0,0l-3.6,68.3c-0.4,7.1-3.5,13.6-8.7,18.3c-4.9,4.4-11.2,6.8-17.7,6.8
		c-0.5,0-0.9,0-1.4,0c-14.6-0.8-25.8-13.3-25.1-27.9l1.9-36.4v0l1.1-20.2c0,0,0,0,0,0l1.7-32.1c0,0,0,0,0,0l0.5-9.1l2.3-43.2
		c0,0,0,0,0,0l1.1-20.2c0,0,0,0,0,0l1.7-32.1c0,0,0,0,0,0l1.1-20.1l0-0.1c0,0,0,0,0,0l1.1-20.5c2.2-42,38.1-74.4,80.1-72.2
		C268.1,51.1,300.4,87.1,298.2,129.1z"/>
	<path fill="#EE7A7B" d="M150.1,189l38.6-20.3l-1.8,34.8l-38.6,20.3L150.1,189z M144.4,298.8l0,0.7l0,0.2l-1,18.8l38.6-20.3
		l1.8-34.8l-38.6,20.3L144.4,298.8z M233.8,57.6l-73.9,38.8c-3.5,7.7-5.7,16.2-6.2,25.1l-0.4,7.4l44.9-23.6c5-6,12.2-10.1,20.3-11.1
		l0.5-0.1h0.3c0.1,0,0.1,0,0.2,0l44.5-23.3C255.3,64.2,245,59.6,233.8,57.6z M289.9,115.6l-35.7,18.7c0.8,2.2,2,4.2,3.6,5.9
		c3.4,3.7,8,5.9,13,6.2c0.3,0,0.7,0,1,0h0c4.7,0,9-1.7,12.5-4.8c3.7-3.4,5.9-8,6.2-13C290.7,124.2,290.5,119.9,289.9,115.6z
		 M159.2,375.4c0.3,0,0.7,0,1,0c4.6,0,9.1-1.7,12.5-4.8c3.6-3.2,5.7-7.6,6.1-12.4l-28,14.7C153.3,374.3,156.1,375.2,159.2,375.4z"/>
	<path fill="#FFFFFF" d="M142.9,327l38.6-20.3l-2.2,42.9l-34.3,18c-2.4-3.4-3.8-7.5-3.6-12L142.9,327z M145.6,275.2l38.6-20.3
		l2.2-42.9l-38.6,20.3L145.6,275.2z M150.6,180.4l38.6-20.3l1.9-36.7c0-0.1,0-0.2,0-0.3c0.1-1.9,0.4-3.7,0.8-5.6l0-0.2l0.1-0.4
		l0-0.2c0,0,0-0.1,0-0.1l-39.4,20.7L150.6,180.4z M167,84.4l52.9-27.7C198.2,57.3,179.1,68,167,84.4z M288.4,108.1
		c-3.2-12.3-9.7-23.3-18.6-32l-37.6,19.8c6.2,2.2,11.6,6.2,15.4,11.8l0.3,0.4l0.1,0.3c2.1,3.2,3.5,6.6,4.3,10.3l0.1,0.3l0.1,0.4
		c0.5,2.4,0.6,4.9,0.5,7.4L288.4,108.1z"/>
</g>
</svg>
