<?xml version="1.0" encoding="utf-8"?>
<!-- Generator: Adobe Illustrator 18.0.0, SVG Export Plug-In . SVG Version: 6.00 Build 0)  -->
<!DOCTYPE svg PUBLIC "-//W3C//DTD SVG 1.1//EN" "http://www.w3.org/Graphics/SVG/1.1/DTD/svg11.dtd">
<svg version="1.1" id="Layer_1" xmlns="http://www.w3.org/2000/svg" xmlns:xlink="http://www.w3.org/1999/xlink" x="0px" y="0px"
	 viewBox="0 0 432 432" enable-background="new 0 0 432 432" xml:space="preserve">
<g>
	<path fill="#000100" d="M303.1,261.8l20.6,119.9L216,325.1l-107.7,56.6l20.6-119.9l-87.1-84.9l120.4-17.5L216,50.3l53.8,109.1
		l120.4,17.5L303.1,261.8z"/>
	<path fill="#ECD389" d="M297.2,255.7l74.7-72.8l-103.3-15c-2.8-0.4-5.2-2.2-6.4-4.7L216,69.6l-46.2,93.6c-1.2,2.5-3.6,4.3-6.4,4.7
		l-103.3,15l74.7,72.8c2,2,2.9,4.8,2.5,7.6l-17.6,102.9l92.4-48.6c1.2-0.7,2.6-1,4-1c1.4,0,2.7,0.3,4,1l92.4,48.6l-17.6-102.9
		C294.2,260.5,295.2,257.7,297.2,255.7z M229.9,298.7c-4.3-2.2-9.1-3.4-13.9-3.4c-4.8,0-9.6,1.2-13.9,3.4L148,327.1l10.3-60.2
		c1.7-9.7-1.6-19.6-8.6-26.4L106,197.7l60.5-8.8c9.7-1.4,18.1-7.5,22.5-16.3l27.1-54.8l27.1,54.8c4.4,8.8,12.8,14.9,22.5,16.3
		l60.5,8.8l-43.8,42.7c-7,6.9-10.3,16.8-8.6,26.4l10.3,60.2L229.9,298.7z"/>
	<path fill="#ECD389" d="M277.8,235.8c-8.6,8.3-12.5,20.3-10.4,32.1l8.1,47.5L232.9,293c-5.2-2.7-11-4.2-16.9-4.2
		c-5.9,0-11.7,1.4-16.9,4.2l-42.6,22.4l8.1-47.5c2-11.8-1.9-23.8-10.4-32.1l-34.5-33.6l47.7-6.9c11.8-1.7,22-9.1,27.3-19.8
		l21.3-43.2l21.3,43.2c5.3,10.7,15.5,18.1,27.3,19.8l47.7,6.9L277.8,235.8z"/>
</g>
</svg>
