<?xml version="1.0" encoding="utf-8"?>
<!-- Generator: Adobe Illustrator 18.0.0, SVG Export Plug-In . SVG Version: 6.00 Build 0)  -->
<!DOCTYPE svg PUBLIC "-//W3C//DTD SVG 1.1//EN" "http://www.w3.org/Graphics/SVG/1.1/DTD/svg11.dtd">
<svg version="1.1" id="Layer_1" xmlns="http://www.w3.org/2000/svg" xmlns:xlink="http://www.w3.org/1999/xlink" x="0px" y="0px"
	 viewBox="0 0 432 432" enable-background="new 0 0 432 432" xml:space="preserve">
<g>
	<path d="M370.7,138.4c-7,6.6-15.3,11.7-22.2,18.3c-9.1,10.1-10,24.2-15.9,36c-2.7,1.1-5.5,2.2-8.2,3.3c-5-0.8-10.2-2.8-15.2-0.7
		c2.9,7.9,6,18.5-2.5,24.3c-11.4,7.6-23.5-3.6-33.9-7.9c1.3,9.8-2.9,19.8-13.4,21.7c-1.5-0.7-4.3-2-5.8-2.7
		c-8.9,1.2-15.9-5.2-23-9.5c6.2,10.4,15.2,22.2,10.6,35.1c-2.9,8.1-12.2,8.9-19.5,8.5c7.5,9.1,15.3,21,10,33.2
		c-5.1,8.9-16,6.9-23.9,3.8c1.9,7.7,6.4,17.9-1.2,24.2c-4.9,7.3-14.2,4.9-21.5,5.1c-9.3,13.8-20.5,26.1-32.4,37.7
		c-5.5-14.1-8.6-29.2-15.1-42.9c-3.2-9.4-16.9-9.6-18.8-19.8c-0.8-8.9,8.8-13.7,13.6-19.8c-9.4-1.5-22.1-6.4-21.9-17.7
		c4.6-10.1,16.3-14.6,24.2-21.9c-7.6-0.5-19.3-4.1-17.3-13.9c5.2-12.9,17.9-20.5,28.5-28.8l1-1.5l-0.5-0.1l0,0
		c-0.1,0-0.3-0.1-0.4-0.1l-7.2-0.9c-10.4-0.7-21.6,0-29.5-7.2c-7-6.7-1.4-16.5,3.9-22.2c-9.3-0.4-18.9,0.4-27.9-2.4
		c-5.6-1.4-7.7-7.9-7.1-13c2.5-6,7.5-10.5,11.1-15.7c-7.7-5.1-19.8-5.5-22.5-16c-0.1-6.3,4-11.9,4.4-18.2
		c-0.5-12.4-4.4-24.4-9.2-35.8c-1.5-2.5-0.7-5.1,0.4-7.5c17,3,34.2,6.1,51.6,5.1c5.4-2.3,10.9-6.5,17.2-4.9c9.3,4,8.6,15.6,13,23.3
		c5.9-6.4,14.5-19,24.3-11.9c7.4,8.9,6,21.7,8.8,32.4c4-2.6,7.5-7.6,12.9-7.3c5.7-0.8,8.8,4.6,12.4,8c2.6,9,3.4,18.4,4.6,27.7
		c6.1-10.1,12.3-23.3,24.6-26.5c8.6-2,11.9,6.3,14.8,12.7c6.5-10.5,14-27.1,28.8-24.7c9.6,4.1,7.3,15.6,8.6,24
		c6.4-5.8,11.3-15.6,21-15.8c3.6-0.4,6.7,2.1,10,3.2c3.6,8,9.4,15.4,18.4,17.2C345.4,131.4,360.1,130.2,370.7,138.4z"/>
	<path fill="#ACC58C" d="M117.3,186.9c2.9-5.2,7.9-9.9,8.3-16.1c-0.9-3.7-2.7-8.1-6.8-9.1c-9.3-2.4-19-1.4-28.5-2.1l0,0
		c3.6-5.4,10-11,10.1-17.8c0-1.3-0.2-2.6-0.7-3.9c-2.7-9.2-12.9-11.2-20.6-14.6c1.8-5.9,3.9-12,4-18.1c0-1.1,0-2.1-0.2-3.2
		c-0.1-0.4-0.1-0.9-0.2-1.3c-0.1-0.6-0.2-1.1-0.4-1.7c-0.1-1.3-0.4-2.6-0.7-3.9c-0.3-1.4-0.7-2.7-1-4.1c-0.1-0.3-0.1-0.5-0.2-0.8
		c-0.5-2.9-0.6-5.7,0.9-8.4c2.6,6.8,8.4,11.3,13.6,16c6.3,5.4,12.4,11,18.5,16.6c4.1,3.8,8.1,7.6,12,11.4c2,1.9,3.9,3.9,5.9,5.8
		c2,2,3.9,3.9,5.8,5.9c1.9,2,3.8,4,5.7,6c8.5,9.1,18.7,16.7,25.8,27c-9,4.1-16.5,11.2-19,21C139,190,128.1,188.9,117.3,186.9
		L117.3,186.9z M230.5,165.5c0.2,2.1,0,4.2-0.6,6.4c33.8-13.4,68.2-28.1,104.8-31.1c0.6-0.3,1.7-0.8,2.3-1
		c-7.1-2.5-14.6-4.4-20.9-8.7c-2-1.8-3.7-3.8-5.4-5.9c-0.1-0.1-0.2-0.2-0.3-0.3c-2.1-2.7-4-5.6-6-8.3c-6.4,5.8-11.4,17.3-21.3,16.4
		c-11.5-2.2-11.7-15.3-12.9-24.5c-6.2,7.5-11.3,15.8-17.7,23.2c-3.3,3.8-8.7,4.9-13.4,3.5c-1.2-1.1-2.1-2.4-2.9-3.7
		c-0.3-0.6-0.6-1.2-0.9-1.9c-0.1-0.3-0.2-0.5-0.3-0.8c-0.2-0.4-0.3-0.8-0.4-1.3c-0.2-0.5-0.3-1.1-0.5-1.6c-0.1-0.5-0.3-1-0.4-1.4
		c-0.4-1.4-0.8-2.9-1.2-4.3c-7.6,7.1-13.6,15.8-18.2,25.2l0,0C223.1,148.6,229.8,156.4,230.5,165.5z M168.3,247.4
		c0.2-1,0.3-2.1,0.4-3.2c0.3-2.1,0.5-4.2,0.7-6.3c0.4-4.2,0.7-8.5,0.9-12.7c-1.3-0.5-2.5-1.1-3.7-1.7c-0.4-0.2-0.8-0.4-1.2-0.6
		c-0.8-0.4-1.6-0.9-2.3-1.4c-0.4-0.2-0.8-0.5-1.1-0.7c-1.1-0.8-2.2-1.6-3.2-2.5c-0.3-0.3-0.7-0.6-1-0.9c-0.6-0.6-1.2-1.3-1.8-2
		c-0.9-1-1.6-2.2-2.3-3.4c-7.2,6.2-14.5,12.3-21.5,18.7c-1,0.9-2,1.8-3,2.8c4.7,0.4,9.5,0.7,14.3,1.5c0.7,0.1,1.3,0.2,2,0.4
		c0.3,0.8,0.5,1.7,0.8,2.5c0.7,2.1,1.3,4.3,1.4,6.5c0,1.6-0.3,3.2-1.1,4.7c-1.1,2.1-2.4,4.1-3.9,5.8c-0.5,0.6-1,1.1-1.5,1.6
		c-5.5,5.6-12.8,9.7-18.8,14.5c5.2,1.4,10.5,2.8,15.8,4.1c1.6,1.2,4.8,3.6,6.4,4.8c0.5,4.2-0.3,8-2,11.3c-0.4,0.8-0.8,1.5-1.3,2.3
		c-0.5,0.7-1,1.5-1.5,2.2c-0.2,0.2-0.4,0.5-0.5,0.7c-0.3,0.4-0.6,0.7-0.9,1.1c-0.7,0.8-1.4,1.6-2.1,2.3c-0.2,0.2-0.4,0.4-0.6,0.6
		c-1.3,1.3-2.6,2.5-4,3.7c9.9,3.7,15.2,11.7,19,20.6c0.4,0.8,0.7,1.7,1,2.6c1.5,3.9,2.8,7.9,4.1,11.7c0-2.4,0.1-4.9,0.2-7.3
		c0.2-4.1,0.7-8.1,1.5-12.1c4.6-22.9,6.3-46.2,10.4-69.1C168,249.5,168.2,248.5,168.3,247.4z M215.2,227.1c-1,0-2.1-0.1-3.1-0.2
		c-1-0.1-2.1-0.2-3.1-0.4c-2-0.4-4-0.9-6-1.7c-1.2-0.8-2.3-1.5-3.4-2.3c-1.1-0.8-2.3-1.6-3.4-2.3c-1.4,0.6-2.9,1.3-4.3,1.9
		c-1.4,0.6-2.9,1.2-4.4,1.7c-2.9,1.1-6,1.9-9,2.4c-0.1,1.6-0.2,3.2-0.3,4.9c-5,33.5-8.3,67.2-14.9,100.4c-0.4,1.9-0.7,3.8-1,5.7
		c-0.2,1-0.3,1.9-0.5,2.9c-0.1,1-0.3,1.9-0.4,2.9c9-7.4,12.4-24.9,26.5-23.7c3.8,0,7.5,0.1,11.3,0.1c-0.4-3.1-1.3-6.3-2.1-9.6
		c-0.1-0.5-0.2-1-0.3-1.5s-0.2-1-0.3-1.5c-0.2-1.2-0.3-2.5-0.4-3.7c0-2.5,0.4-4.9,1.6-7.2c1.6-2.8,3.9-4.2,6.4-4.8
		c0.3-0.1,0.5-0.1,0.8-0.2c0.8-0.1,1.6-0.2,2.4-0.2c0.3,0,0.5,0,0.8,0c1.9,0,3.9,0.4,5.9,0.7c0.6,0.1,1.1,0.2,1.7,0.3
		c2.2,0.5,4.4,1,6.4,1.3c0-0.2,0-0.4,0-0.6c0-0.2,0-0.4,0-0.6c0-0.4-0.1-0.8-0.1-1.2c-0.1-0.6-0.2-1.1-0.3-1.7
		c-0.2-0.9-0.5-1.8-0.9-2.7c-0.8-2-1.8-3.9-3-5.7c-0.2-0.3-0.4-0.7-0.6-1c-3.5-5.5-7.6-10.7-7.1-17c0-0.1,0-0.1,0-0.2
		c0-0.3,0.1-0.6,0.1-1c0-0.1,0-0.1,0-0.2c0.1-0.7,0.3-1.5,0.6-2.3c0.4-1,0.9-1.8,1.5-2.4c4.2-4.7,12.4-2.9,18.2-3.6
		c0.1-0.6,0.1-1.3,0.1-1.9c0.2-9.3-5.7-17.1-11.5-24C217.9,227.1,216.6,227.1,215.2,227.1z M337.6,147.1c-2.3,0.4-4.6,0.9-6.9,1.4
		c-2.3,0.5-4.6,1-6.9,1.5c-2.3,0.5-4.6,1.1-6.9,1.7c-2.3,0.6-4.6,1.2-6.8,1.8c-1.1,0.3-2.3,0.6-3.4,0.9c-2.3,0.6-4.5,1.3-6.8,1.9
		c-1.1,0.3-2.3,0.7-3.4,1c-2.3,0.7-4.5,1.4-6.7,2.1c-2.2,0.7-4.5,1.4-6.7,2.2c-2.2,0.7-4.5,1.5-6.7,2.2c-2.2,0.7-4.5,1.5-6.7,2.3
		c-2.2,0.8-4.5,1.5-6.7,2.3c-2.2,0.8-4.4,1.6-6.7,2.3c-2.2,0.8-4.4,1.6-6.7,2.4c-6.7,2.4-13.3,4.7-20,7.1c7.1,9,11.7,20.3,7.6,31.6
		c6.6,3.8,15.1,12.7,22.9,8c1.1-7.5-1-19,9.4-20.3c11,0.9,20.3,8.6,31,11.5c-0.7-4.9-3-10.6-2.9-15.8c0,0,0,0,0,0
		c0-1.9,0.3-3.7,1.1-5.4c0.7-1.4,1.8-2.8,3.3-4c5.9-5.6,14.4-3,21.5-2c3.5-11.9,7.1-24.2,15.3-33.9l3-3.5L337.6,147.1z M170.7,160.1
		c1.3,1.5,2.7,3.1,4,4.6c1.3,1.5,2.7,3.1,4,4.7c0.2-0.9,0.4-1.8,0.6-2.7c0.1-0.3,0.2-0.7,0.2-1c0.2-0.7,0.3-1.3,0.5-2
		c0.1-0.5,0.3-0.9,0.4-1.4c0.3-1.2,0.7-2.3,1.2-3.5c0.2-0.5,0.4-0.9,0.6-1.3c0.5-1.1,1-2.2,1.7-3.2c0.3-0.4,0.5-0.8,0.8-1.2
		c0.3-0.4,0.6-0.8,0.9-1.1c0.3-0.4,0.6-0.7,1-1.1c0.7-0.7,1.4-1.4,2.3-2c1.1-0.6,2.2-1.2,3.3-1.7c1.1-0.6,2.3-1.1,3.4-1.7
		c-0.2-11.6-0.1-23.5-5.1-34.3c-5.2,3.9-10.3,12.3-17.9,8.8c-1.6-1.2-2.8-2.5-3.9-4c-0.5-0.6-0.9-1.3-1.2-2c0-0.1-0.1-0.1-0.1-0.2
		c0,0,0,0,0-0.1c-0.2-0.5-0.5-0.9-0.7-1.4c-0.8-1.9-1.4-3.8-1.8-5.9c-0.1-0.5-0.2-1.1-0.3-1.6c-0.2-1-0.3-2.1-0.4-3.1
		c-0.5-3.7-0.7-7.5-1.2-11.2c-0.1-0.6-0.2-1.3-0.3-1.9c-0.2-1.2-0.5-2.4-0.8-3.5c-5.4,5-10.1,13.3-18.3,13.5c-3.1-0.6-5.4-2-7.3-3.9
		c0,0,0,0,0,0c-0.4-0.4-0.7-0.8-1.1-1.2c-0.1-0.1-0.2-0.2-0.3-0.3c-0.2-0.3-0.5-0.6-0.7-0.9c-0.6-0.8-1.1-1.7-1.6-2.6
		c0,0,0-0.1-0.1-0.1c-0.3-0.7-0.7-1.3-1-2c-0.1-0.3-0.3-0.7-0.4-1c-0.6-1.4-1.1-2.9-1.5-4.3c-0.2-0.6-0.4-1.2-0.6-1.9
		c-0.1-0.3-0.2-0.7-0.3-1c-0.4-1.3-0.8-2.6-1.1-3.9c-10.9,8.4-24.3,4.6-36.7,4l-0.3-0.2l-5.7,0.5l4.8,4.3
		C118.3,107.4,144.9,133.4,170.7,160.1z"/>
	<path fill="#ED777B" d="M199.4,195.7c0.1,1.6,0.1,3.4-0.2,5.1c-0.2,2.5-0.9,4.7-2,6.8c-0.2,0.5-0.5,0.9-0.7,1.3
		c-1.5,2.4-3.4,4.4-5.7,6.1c-0.4,0.3-0.8,0.6-1.3,0.9c-2.4,1.5-5,2.6-7.8,3.2c-3,0.7-6.1,0.7-9.1,0.2c-0.2,0-0.5-0.1-0.7-0.2
		c-1.5-0.3-2.9-0.8-4.3-1.5c-0.5-0.2-0.9-0.5-1.3-0.7c-0.9-0.5-1.7-1.1-2.5-1.8c-0.8-0.7-1.6-1.5-2.3-2.3c-5.8-5.2-7.4-13-5.7-20
		c0.2-0.7,0.4-1.4,0.6-2.1c0.7-2.1,1.6-4.1,2.9-5.9c0.8-1.2,1.7-2.3,2.8-3.3c0.2-0.2,0.3-0.3,0.5-0.5c0.4-0.3,0.7-0.6,1.1-0.9
		c0.4-0.3,0.8-0.6,1.2-0.9c0.6-0.4,1.2-0.8,1.9-1.1c0.4-0.2,0.9-0.4,1.3-0.6c1.3-0.6,2.8-1.1,4.3-1.3v0c0.5-0.2,1.4-0.4,2.2-0.6
		c0.3-0.1,0.6-0.2,0.9-0.2c0.1,0,0.2-0.1,0.4-0.1c2.1,0.1,4.1,0.4,6.1,1c0.8,0.2,1.6,0.5,2.3,0.8c1.9,0.8,3.7,1.7,5.4,2.9
		c0.7,0.5,1.3,1,1.9,1.5c1.2,1.1,2.4,2.2,3.4,3.5c0.7,0.9,1.4,2,2,3c0.8,1.4,1.4,2.9,1.8,4.4c0.1,0.4,0.2,0.8,0.3,1.2
		C199.2,194.1,199.3,194.9,199.4,195.7z M184.7,168.1c0.3,0.7,0.8,1.4,1.4,1.9c0.4,0.3,0.9,0.6,1.4,0.9c0.3,0.2,0.6,0.3,1,0.4
		c0.7,0.3,1.3,0.7,1.9,1c0.3,0.2,0.6,0.4,1,0.6c0.8,0.5,1.6,1,2.3,1.6c1.3,1,2.5,2,3.7,3.1c0.3,0.3,0.6,0.6,0.9,1
		c0.6,0.7,1.2,1.3,1.8,2c1.4,1.8,2.7,3.7,3.8,5.7c4.1-0.8,9.2-1.6,13-3.9l0,0c2.2-0.3,8.6-5.5,7.7-14.9c-0.8-7.5-4.5-10.7-6-11.7
		c-10.1-9.4-27.7-4.9-33.5,7.3c-0.6,1.3-0.8,2.7-0.6,3.9C184.4,167.4,184.5,167.7,184.7,168.1z M232.4,203.4c0-0.7-0.1-1.3-0.2-2
		c-0.2-1.7-0.6-3.4-1.2-5c-0.2-0.7-0.5-1.3-0.7-2c-0.4-1-0.8-2-1.3-2.9c-0.2-0.3-0.3-0.6-0.5-0.9c-0.8-1.6-1.7-3.1-2.6-4.5
		c-0.4-0.6-0.7-1.1-1.1-1.6c-2.1,1.5-4.4,2.7-6.7,3.8c-3.8,1.9-7.8,3.4-11.8,5c-1,7.8-1.9,15.8-6.8,22.2c5.7,4.4,13.9,6.7,20.8,4.8
		c3.1-0.9,6-2.7,8.3-5.5c1.6-2,2.7-4.2,3.2-6.4c0.1-0.3,0.1-0.6,0.2-1c0.2-1,0.3-2,0.3-3C232.4,204.1,232.4,203.7,232.4,203.4z"/>
</g>
</svg>
