<?xml version="1.0" encoding="utf-8"?>
<!-- Generator: Adobe Illustrator 18.0.0, SVG Export Plug-In . SVG Version: 6.00 Build 0)  -->
<!DOCTYPE svg PUBLIC "-//W3C//DTD SVG 1.1//EN" "http://www.w3.org/Graphics/SVG/1.1/DTD/svg11.dtd">
<svg version="1.1" id="Layer_1" xmlns="http://www.w3.org/2000/svg" xmlns:xlink="http://www.w3.org/1999/xlink" x="0px" y="0px"
	 viewBox="0 0 432 432" enable-background="new 0 0 432 432" xml:space="preserve">
<g>
	<path fill="#000100" d="M380.9,245.4c-2.4-4.9-8.1-7.8-13.4-6.9c-3.3,0.6-12.9,3.8-18.5,6.1c-2.9,1.1-8.5,3.3-12.2,4.7l-4.9,1.9
		l-5.2-2.4c-3.9-1.8-12-5.6-17.6-8.2c-2.6-1.2-5.2-2.4-7.4-3.5l-0.4-0.2c-0.2-0.1-0.4-0.2-0.7-0.3c10.4-6.7,28.4-20.2,32.2-24.3
		c2.5-2.6,3.4-4.2,4.2-6.5l0-0.1c1.2-4.2,0.6-7.7-1.9-11c-2.6-3.4-4.9-4.5-11-6.5c-2.6-0.8-14.6-4.7-22.8-7.4c2-1,4.3-2.2,6.9-3.5
		l13.4-6.8l0.7,0.4c5.6,3.6,25.8,14.7,33.9,18.6c5.1,2.5,9.3,3.3,14.6-0.3c2.8-1.9,4.6-5.1,4.9-8.9c0.3-3.9-1-7.7-3.6-10.1
		c0,0-0.1-0.1-0.1-0.1c-1.4-1.3-10-5.9-12.8-7.4c-4.4-2.3-8.5-4.5-11.7-6.3c1.9-1,3.6-1.9,4.4-2.3c2.7-0.4,5.5-2.3,7.2-4
		c3.3-3.3,4.6-7.7,3.6-12c-0.9-4.2-4.7-8.2-8.8-9.2c-4.4-1.2-7.4-0.2-12.7,2.5c1.4-4.4,3-9,4-11.3c2.7-6.3,1.1-10.7-0.7-13.3
		c-2.1-3-5.7-5-9.6-5.3c-3.8-0.3-7.4,1.1-9.9,3.8c-3.4,3.6-7.5,17.1-10.4,27.9c-0.8,3.1-2.6,9.5-3.4,12.1l-0.9,2.7l-11.8,6
		c-2.6,1.3-5.3,2.7-7.9,4l-0.3,0.2c-3.6,1.8-7.1,3.6-9.4,4.8c0.4-6.6,0.4-17.1,0-31.2c-0.4-13.2-1-18.6-5.5-23.1
		c-2.8-2.8-5.3-3.8-9-3.8c-4,0-4.9,0.6-13.4,6.1l-0.4,0.2c-8,5.3-12.1,8.4-18.4,13.8c-1.4,1.1-2.6,2.2-3.7,3.1
		c-0.1-2.9-0.1-6.3-0.2-9l-0.2-6.2l8.2-5.5c5.6-3.7,13.4-8.8,17.2-11.2c5.9-3.7,8.1-5.1,9.5-7.8c3.4-5.9,1.5-13.5-4.4-16.9
		c-3.6-2.1-7.5-2.4-11-0.8c-1.5,0.7-12.5,7.5-18.9,11.6c0-0.7,0-1.4,0-2.1l0.3-10.3c0-0.8-0.2-1.6-0.5-2.2l-1-1.9
		c-2.7-5.3-8.9-7.9-14.8-6.1c-3,0.9-6,3.4-7.5,6.3c0,0.1-0.1,0.1-0.1,0.2c-0.7,1.5-0.9,3.2-1.3,9.5c-1.7-1.9-3.2-3.7-5.3-6.4
		c-3.2-4-6.7-5.7-11.1-5.3c-5.7,0.3-9.9,3.8-11.4,9.4c-2,7.1,2.8,12.8,18.1,28.6c4.7,4.8,7.9,8.2,8.9,9.3c0.2,1.6,0.2,6.9,0.3,14.7
		l0.2,10.1c-0.7-0.3-1.4-0.7-2-1c0,0-0.1,0-0.1-0.1c-0.8-0.4-2.1-1-3.9-1.8l-0.1,0c-3.5-1.6-9.5-4.4-15-6.9
		c-11.4-5.2-18.5-8.5-21.8-10c-8.8-4.1-12.2-5.4-17.4-3.2c-5.3,2.2-8.8,8-7.9,13.3c0,0.1,0,0.1,0,0.2c0.2,1.1,1,3.6,1.7,5.6
		c1.6,4.1,2.8,8.5,3.8,13.7c0.4,2.3,1.2,5.6,1.7,7.3c0.5,1.8,2.5,10.6,3.9,17c-4.8-2.1-12-5.2-21.4-9.2c-4.4-1.9-10.4-4.5-12.8-5.4
		l-1.9-0.8l-0.3-1.3c-2.6-11.6-9.7-40.1-11.4-43.1c0,0-0.1-0.1-0.1-0.1c-2.8-4.5-9.3-6.7-14.4-5c-4.9,1.6-8.5,6.5-8.6,11.7l0,0.1
		c0,2.3,1.5,8.1,1.6,8.3c1.5,5.4,3.2,12.3,4.4,17.5c-2.8-1.2-5.7-2.5-7.7-3.4c-6.5-3-13-1.6-16.6,3.6c-3.2,4.4-2.9,11.2,0.6,15.4
		c1.1,1.3,3.1,3,14.2,7.7c-3.8,1.8-8.3,3.7-11.5,4.8c-1.1,0.4-4.8,1.8-6.7,3.4c-4,3.4-5.5,8.7-3.7,13.6c1.8,5,6.5,8.2,11.8,8.2
		c2.5,0,7.2-0.9,21.3-7.7c3.1-1.5,8.8-4,12.5-5.7c4.8-2.1,6.9-3,7.9-3.6c0.9,0.3,2.3,0.9,3.9,1.6l0.1,0c2.7,1.1,8.3,3.5,13.3,5.7
		l2.8,1.2c1.4,0.6,2.8,1.2,4.2,1.8c-19.1,10.2-23.7,12.8-30.1,17.2c-5.9,4-9.9,7.9-10,14.3c-0.2,9,7.3,11.9,9.8,12.9
		c4.8,1.9,19.2,6.5,28.9,9.4c-0.1,0.1-0.2,0.1-0.3,0.2l-0.2,0.1c-8.2,4.2-18.2,9.5-22.1,11.6l-1.8,1l-10.8-4.3
		c-7.4-2.9-16.4-6.5-20.5-8.3c-8.6-3.6-11.8-5-17-2.2c-4.2,2.3-6.6,6.5-6.5,11.2c0.1,4.8,2.9,9.1,7.3,11.3
		c1.9,0.9,12.2,5.2,18.7,7.8c-2.4,1.3-4.9,2.7-6.8,3.8c-4.7,2.6-7.7,5.3-8,10.6c-0.3,4.1,1.1,7.7,4,10.5c2.7,2.5,4.7,3.3,8.4,3.3
		c3.6,0,6.1-1.2,14.4-6l0.1-0.1c0,0,0.1-0.1,0.1-0.1c-0.1,0.6-0.3,1.3-0.4,1.9l-0.2,1.1c-3.2,14.5-3.3,15.1-3,18.1
		c0.5,5.7,4.7,10.1,10.4,11c5.8,0.9,11.1-2,13.3-7.2c0-0.1,0.1-0.1,0.1-0.2c0.4-1,0.9-3.1,1.3-4.9c0-0.1,0-0.1,0-0.2
		c0.2-1.4,1.3-6.3,2.3-11.1l0.4-2.1c1.4-6.4,2.9-13.5,3.6-17c0.4-2.3,0.9-4,1.1-5.1c1.6-0.9,5.2-2.9,13.7-7.3
		c3.6-1.8,9.2-4.8,13.8-7.2l2.4-1.3c0.9-0.5,1.6-0.9,2.4-1.3c0.1,2.4,0.3,5.3,0.5,7.5c0.3,3.4,0.8,10.7,1.1,16.5
		c1.3,24,1.5,27.1,6.5,31.5c3.8,3.2,9.5,4.1,13.6,2.1c0.7-0.3,1.4-0.8,10.1-7.3l1.3-0.9c5.3-4,13.4-9.9,17.9-13.1l2.4-1.6
		c0.5-0.4,1-0.7,1.5-1c0,2.4,0,5.5,0,9.2l0.1,15.1l-1.4,1.1c-4.8,3.5-26.5,21.6-28.2,23.8c-3.4,4.2-3.9,9.3-1.5,14.2
		c2,4.1,5.6,6.5,10,6.8c4.4,0.3,7.8-1.1,10.9-4.6c0.8-0.9,6.5-5.8,11.4-9.9c0.1,2.6,0.1,5.2,0.1,7.3c-0.1,4.7,0.1,6.2,1.2,8.7
		l0.1,0.1c1.8,3.7,5.3,6.2,9.5,6.8c0.6,0.1,1.2,0.1,1.8,0.1c0,0,0,0,0,0c3.5,0,6.7-1.4,9-3.9c3.4-3.7,3.4-5.5,3.3-16.6
		c0.6,0.6,1.2,1.2,1.8,1.9c8.3,8.7,12.3,12.3,18.3,12.4c4.2,0.1,8.2-1.9,10.7-5.5c2.4-3.5,3-8,1.4-11.8l0-0.1
		c-1.2-2.7-2.5-4.1-5.4-6c-0.9-0.7-6.6-6-15.3-14.6l-12.7-12.6l-0.1-15.8c0-4.5,0-8.5,0-11.4c7.5,2.6,20.5,7.4,26.2,9.6
		c15.8,6.3,21.4,7.9,27.5,7.9c4.6,0,7.4-0.9,10.3-3.5c2.8-2.5,4.3-6,4.3-10.2c0-2.6-1.2-6.8-8.2-24.5c-1.5-3.7-3.1-7.9-4.3-11.3
		c4.5,2,9.8,4.5,13.6,6.3c6.4,3.1,19.4,9.1,23,10.6l0.1,0c0.3,0.1,0.5,0.2,0.7,0.3c0.1,0.8,0.3,1.5,0.4,1.9
		c0.4,2.3,1.6,7.6,2.6,11.8c0.9,3.7,2.6,11,3.6,15.8c0.1,0.4,1.8,8.9,2.7,10.9c0.6,1.4,1.9,3.1,3.1,4.2c3.6,3.3,8.7,4,13.2,2
		c4.5-2,7.4-6.3,7.4-11.2c0-2.4-2.6-14.8-4.4-22.7c2.6,1.2,4.9,2.2,5.4,2.5c4.3,2.6,10.5,2.1,14.5-1.2c5.1-4.1,6.1-11.3,2.4-16.9
		c-1.2-1.9-3.3-3.3-8.8-5.8c2.7-0.9,5.6-1.8,8.1-2.5c3.9-1.1,7-3.7,8.6-7.2C382.7,252.5,382.6,248.8,380.9,245.4z M371.4,258.8
		c-6.8,1.9-18.2,6-18.2,6.5c0,0.1,1.6,0.9,3.5,1.7c8.7,3.7,11.9,5.4,12.9,6.9c2.4,3.7,1.9,8.3-1.5,11c-2.5,2.1-6.8,2.5-9.4,0.9
		c-1.2-0.7-13.3-6-13.8-6c-0.1,0,0.3,2.2,0.9,5c2,8.1,5.1,23.2,5.1,25.1c0,6.7-8.2,10.3-13.1,5.9c-0.8-0.7-1.7-1.9-2-2.7
		c-0.4-0.8-1.4-5.2-2.4-9.9s-2.6-11.9-3.6-16c-1-4.2-2.2-9.4-2.6-11.6c-0.4-2.3-0.8-4.2-0.9-4.2c-0.1,0-1.4-0.6-2.9-1.3
		c-3.4-1.5-16.2-7.4-22.8-10.6c-7.3-3.5-22.1-10.2-22.5-10.2c-0.2,0-0.4,0.1-0.4,0.1c0,0.9,4.2,12.6,7.5,20.8
		c5.8,14.6,7.9,20.6,7.9,22.8c0,2.9-0.9,5.2-2.8,6.8c-2,1.8-3.8,2.4-7.3,2.4c-5.5,0-10.8-1.6-25.9-7.6c-7.4-2.9-27.2-10.1-31.7-11.5
		c-0.6-0.2-0.7,0.6-0.6,17.5l0.1,17.7l14,13.9c7.8,7.7,14.9,14.5,15.9,15.2c2.4,1.5,3,2.3,3.8,4.1c2.2,5.3-2.1,11.4-7.8,11.2
		c-3.8-0.1-6.7-2.2-15.2-11c-3.5-3.7-7.1-7.3-8-8l-1.6-1.3l0.1,10.3c0.1,11.1,0,11.4-2.2,13.8c-3.7,4-10.7,2.9-13.1-2
		c-0.7-1.6-0.9-2.3-0.8-6.8c0.1-6.5-0.4-16.1-0.8-16.1c-0.5,0-16.7,13.7-18.5,15.7c-2.2,2.5-4.2,3.4-7.3,3.2c-2.9-0.2-5-1.7-6.3-4.4
		c-1.7-3.2-1.3-6.6,0.9-9.3c1.2-1.5,22.1-19,27.4-23l3.2-2.4l-0.1-17.3c0-9.5-0.1-17.3-0.2-17.4c-0.1-0.1-0.2-0.1-10.7,7.3
		c-4.5,3.2-12.6,9.1-18,13.1c-5.5,4.1-10.3,7.6-10.6,7.8c-2.5,1.3-6.4,0.6-8.8-1.4c-3.4-2.9-3.7-4.5-5-28.3
		c-0.4-5.7-0.9-13.1-1.1-16.6c-0.3-3.4-0.6-8-0.6-10.3c0-2.2-0.1-4-0.2-4c-0.1,0-4,2-8.6,4.5c-4.6,2.4-11.9,6.3-16.1,8.5
		c-10.3,5.3-14.8,7.8-15.4,8.3c-0.3,0.3-1.1,3.5-1.8,7.2c-0.7,3.7-2.4,11.4-3.6,17c-1.2,5.7-2.5,11.6-2.8,13.3
		c-0.4,1.7-0.9,3.5-1.1,4.3c-3.1,7.4-14.5,5.5-15.2-2.4c-0.2-2.4-0.1-2.9,3.2-17.8c1.4-6,2.4-11.1,2.4-11.2c0-0.3-2.4,1-8.8,4.6
		c-8,4.6-9.8,5.4-12.2,5.4c-2.5,0-3.5-0.4-5.4-2.1c-1.9-1.8-2.8-4.1-2.6-6.8c0.2-3.1,1.6-4.7,5.7-7c8.3-4.6,14.9-8.3,14.8-8.5
		c-0.1-0.1-2.3-0.9-5-1.9c-5-1.9-19.9-8-21.9-9.1c-6.1-3-6.5-11.4-0.6-14.6c3.1-1.7,4.2-1.4,13.1,2.4c4.3,1.9,13.6,5.6,20.6,8.3
		l12.7,5l3.7-2c6.5-3.4,15.2-8,22-11.6c10.8-5.5,10.6-5.5,9-5.8c-4.5-1-31.4-9.5-37.9-12c-5-1.9-7-4.5-7-8.6c0.1-4,2.2-6.8,8-10.7
		c6.3-4.2,10.6-6.8,30.5-17.3c3.2-1.7,6.2-3.3,6.5-3.6c0.7-0.5,0.7-0.6-0.3-0.9c-0.6-0.2-5.7-2.4-11.5-5c-5.7-2.5-13.1-5.7-16.3-7
		c-5.8-2.4-5.8-2.4-7-1.8c-0.6,0.4-4.4,2.1-8.3,3.8c-4,1.7-9.6,4.3-12.6,5.7c-10.1,4.9-16.5,7.3-19.4,7.3c-7.5,0-11-9.1-5.2-13.9
		c0.9-0.7,3-1.8,5.4-2.7c6.8-2.4,20.7-9,20.2-9.4c-0.1-0.1-2.7-1.3-5.6-2.5c-9.3-3.9-14.3-6.4-15.4-7.7c-2.2-2.7-2.4-7.2-0.4-10
		c2.4-3.4,6.6-4.2,11.1-2.2c4.6,2.2,15.5,6.8,15.7,6.6c0.2-0.1-3.7-16.2-6.3-25.9c-0.8-3-1.4-6.3-1.4-7.2c0.1-3.3,2.4-6.5,5.5-7.5
		c3.2-1.1,7.5,0.4,9.2,3.2c1,1.7,7.1,25.1,10.9,41.8l0.9,3.6l4,1.7c2.2,0.9,8,3.3,12.7,5.4c21.4,9.3,27.6,11.9,28.5,12.1
		c0.9,0.2,0.9,0.2,0.6-1c-0.4-2.2-4.7-21.3-5.5-24.2c-0.4-1.5-1.1-4.6-1.6-6.9c-1-5.2-2.3-10-4-14.4c-0.7-1.9-1.4-4.1-1.5-4.8
		c-0.5-3.2,1.8-7,5.2-8.5c3.2-1.4,5-0.9,13.8,3.1c4.1,1.9,13.9,6.4,21.8,10c7.9,3.6,16.4,7.5,18.9,8.7c2.4,1.2,5.4,2.6,6.5,3.1
		l2,0.9l-0.3-16.7c-0.2-15.9-0.2-16.7-1-17.6c-0.4-0.6-4.7-5-9.5-10c-15.3-15.8-18.2-19.9-17-24.3c1-3.8,3.5-6,7.3-6.2
		c3-0.2,5.1,0.9,7.3,3.7c3.3,4.2,5.1,6.3,8.9,10.3l3.8,4.1l0.4-8.6c0.4-6.7,0.6-8.9,1-9.8c0.9-1.8,2.9-3.5,4.8-4.1
		c3.8-1.1,7.8,0.4,9.5,3.9l1.1,2L226.4,80c-0.1,5.6-0.1,10.3,0.1,10.3s1-0.5,1.9-1.1c4.2-2.9,21.8-13.9,23.3-14.5
		c2.2-0.9,4.6-0.7,7,0.6c3.7,2.2,5,7,2.7,10.8c-0.9,1.6-1.9,2.4-8,6.3c-3.9,2.5-11.6,7.5-17.2,11.3l-10.2,6.8l0.2,8.7
		c0.1,4.7,0.3,10.8,0.3,13.5v4.9l3.2-2.6c1.7-1.4,5.2-4.4,7.8-6.5c6.2-5.3,10.2-8.3,18-13.5c8.5-5.5,8.5-5.6,11.3-5.6
		c2.6,0,4,0.6,5.8,2.5c3,3.1,3.7,6.5,4.2,20.1c0.4,14.4,0.4,25.6-0.1,32.1c-0.2,2.9-0.4,5.6-0.3,5.9c0.1,0.4,1.5-0.2,5.5-2.3
		c3-1.6,11.6-5.9,18.9-9.6l13.4-6.8l1.4-4.5c0.8-2.5,2.3-8,3.4-12.3c3.5-13.1,7.3-23.8,9.3-25.9c3.3-3.6,9.7-3,12.5,1
		c1.7,2.4,1.8,5.5,0.3,9c-2.3,5.1-7.3,21.1-6.8,21.6c0.1,0.1,3-1.4,6.5-3.3c7-3.7,8.7-4.2,11.8-3.4c2.4,0.6,5,3.3,5.6,5.9
		c0.6,2.8-0.2,5.6-2.4,7.8c-1.6,1.6-3.7,2.8-5,2.8c-0.8,0.1-11.9,6.1-12,6.6c-0.1,0.4,2.5,1.9,18.2,10.3c6.1,3.2,11.4,6.3,12,6.8
		c3.3,3.1,2.9,9.6-0.7,12c-3.3,2.2-5.5,2.2-10.1,0c-7.8-3.7-27.9-14.9-33.4-18.4l-2.9-1.8l-14.1,7.1c-18.5,9.3-18,9.1-16.8,9.6
		c1.6,0.6,27.7,9.2,31.8,10.4c5.5,1.7,6.9,2.5,8.7,4.9c1.6,2.1,1.9,4.2,1.1,7c-0.5,1.7-1.1,2.7-3.2,4.8c-4.1,4.4-26.6,21-34.9,25.8
		c-1.9,1-3.3,1.9-3.3,2.1c0,0.1,1.2,0.6,2.6,1.3c1.4,0.6,7.4,3.4,13.3,6.2c5.9,2.8,13.9,6.5,17.7,8.3l6.9,3.2l6.7-2.5
		c3.7-1.4,9.2-3.5,12.3-4.7c5.6-2.2,14.9-5.3,17.7-5.8c3.2-0.6,7,1.4,8.5,4.5C379.2,252,376.7,257.3,371.4,258.8z M258.6,242.9
		c-0.4-1.4-0.9-2.7-1.1-2.9s-3.9-1.9-8.1-3.7c-4.2-1.9-8.5-3.7-9.6-4.2c-1-0.5-2.1-0.9-2.3-0.9c-0.2,0-1.1,1.1-2.1,2.3
		c-2.1,2.9-4.2,4.7-7.8,7l-2.8,1.8l0.3,4.2c0.1,2.3,0.2,7.5,0.2,11.6v7.3l5,1.9c2.7,1.1,8.5,3.2,13.1,4.7c4.5,1.5,12.9,4.7,18.8,7
		c5.8,2.3,10.6,4.1,10.7,4c0.1-0.1-1.4-4.2-3.4-9.1C266,265.8,260.3,248.9,258.6,242.9z M263.7,274.9c-5.7-2.3-14.3-5.5-18.9-7
		c-4.2-1.5-10.1-3.6-12.9-4.7l-2.1-0.8v-4.3c0-4.5-0.2-10.1-0.2-11.8v0c0-0.1,0-0.1,0-0.2l-0.1-1.5l0.6-0.4c4.1-2.6,6.5-4.7,8.7-7.8
		c0.9,0.4,2.4,1.1,4.2,1.8c1.5,0.6,3.1,1.4,4.8,2.1c2.6,1.1,5,2.2,6.4,2.8c0.1,0.2,0.2,0.5,0.2,0.8c1.6,5.9,7.3,22.7,10.8,31.4
		C264.7,275.3,264.2,275.1,263.7,274.9z M208.6,243.6l-2-0.6c-1.1-0.4-3.7-1.4-5.8-2.5c-3-1.5-4.5-2.5-6.5-4.5
		c-1.4-1.4-2.7-2.6-2.7-2.7c-0.1,0.1-8.5,4.7-15.4,8.3l-6.6,3.6l0.1,7.8c0.1,4.2,0.4,11.9,0.9,17.2c0.4,5.2,0.9,12.1,1,15.4
		c0.1,3.2,0.4,6,0.6,6.1c0.1,0.1,2.4-1.3,4.8-3.1c6.8-5,17.7-12.7,24.2-17c3.2-2.2,6.3-4.4,6.9-4.9l1-1v-8.5c0-4.7-0.1-9.7-0.2-11.1
		L208.6,243.6z M204.6,263.7c-1,0.8-3.3,2.4-5.9,4.1c-6.1,4-15.9,11-22.8,16c-0.2-3.7-0.6-9.4-0.9-14c-0.4-5.3-0.8-12.9-0.8-16.9
		l-0.1-5l4.2-2.3c4.4-2.4,9.4-5.1,12.5-6.8c0.1,0.1,0.2,0.2,0.3,0.3c2.3,2.3,4.2,3.6,7.6,5.4c2,1,4.3,2,5.7,2.5
		c0.1,1.4,0.2,5.1,0.2,10.2V263.7z M186.2,218l0.3-3.3c0.1-1.9,0.3-3.9,0.4-4.6l0.1-1.2l-13.6-5.8c-7.5-3.2-13.9-5.8-14.4-5.7
		c-0.4,0-3.7,1.7-7.2,3.8c-3.5,2.1-8.9,5.2-12.1,6.8c-12.1,6.5-19.8,10.7-19.8,10.9c0,0.1,4.7,1.6,10.5,3.3
		c12.4,3.7,17,5.1,24.1,7.6c2.9,1.1,5.7,1.9,6,1.8c0.4-0.1,6.3-3.2,13.1-6.8L186.2,218z M160,226.9c-0.9-0.3-2.3-0.7-4-1.3
		c-7.4-2.6-12-4-24.3-7.7c-0.2-0.1-0.4-0.1-0.6-0.2c3.5-1.9,7.5-4,10.6-5.7l0.1-0.1c3.2-1.7,8.6-4.8,12.3-6.9c2.2-1.3,4-2.3,5.2-2.9
		c2.1,0.8,6.6,2.6,12.3,5.1l10.7,4.6c0,0.3,0,0.6-0.1,1l-0.2,2.5l-10.3,5.6C164.5,224.6,161.4,226.2,160,226.9z M227.5,190.4
		c0.9,0.3,2.7,1,3.9,1.7l2.2,1.1l1.6-0.8c0.9-0.5,6.7-3.5,12.9-6.8l11.4-6l0.1-2.8c0.1-1.6,0.4-6.2,0.6-10.3
		c0.3-4.4,0.6-11.8,0.5-18c-0.1-5.7-0.1-12.1-0.4-14l-0.2-3.5l-4.3,3.3c-2.4,1.8-5.4,4.2-6.6,5.2c-1.2,1.1-6,5.1-10.6,8.9
		c-4.6,3.8-9.2,7.8-10.3,8.8l-2,1.9l-0.4,14.9c-0.2,8.2-0.3,15.1-0.2,15.4C225.8,189.7,226.7,190.1,227.5,190.4z M230.4,174.2
		l0.3-13.1l0.6-0.5c1.4-1.2,5.8-5,10.2-8.6c4.7-3.9,9.4-7.9,10.7-9c0.8-0.7,2.3-1.9,3.9-3.2c0.1,2.5,0.1,5.5,0.1,8.2l0,0.6
		c0.1,5.9-0.2,13.1-0.5,17.6c-0.3,4-0.6,8.7-0.7,10.4l0,0.3l-9.1,4.8c-2.6,1.4-5.1,2.7-7.2,3.8c-2.6,1.4-4.2,2.2-5.1,2.7l-0.1-0.1
		c-1-0.5-2.2-1.1-3.3-1.5C230.2,184,230.3,179.6,230.4,174.2z M309.1,205.3l-13.5-4.6c-7.5-2.5-15.3-5.3-17.5-6.2
		c-2.1-0.9-4.5-1.9-5.4-2.4l-1.4-0.7l-7.9,4.2c-22.8,12-21.7,11.4-21.5,12.4c0.1,0.6,0.4,2.4,0.5,4.2l0.2,3.3l5.5,2.4
		c3,1.4,9.9,4.3,15.2,6.7l9.8,4.2l1.8-1.1c1-0.6,4.2-2.5,7.3-4.2c6.8-3.9,10.3-6.3,19.5-12.9L309.1,205.3z M299.2,207
		c-9,6.5-12.5,8.9-19.1,12.7c-2,1.1-4,2.3-5.4,3.2l0,0c-0.8,0.5-1.4,0.9-1.8,1.1l-7.6-3.3c-2.8-1.2-5.9-2.6-8.7-3.8l-0.1,0
		c-2.7-1.2-5-2.2-6.4-2.8l-3.1-1.3l0-0.7c0-0.3-0.1-1.3-0.2-2.4c2.4-1.3,7.1-3.8,14.8-7.9l9.8-5.2c1.1,0.5,2.7,1.2,4.9,2.1l0.2,0.1
		c2.3,0.9,10.4,3.8,17.7,6.3l5.4,1.8L299.2,207z M181.1,147.2c-4.3-1.9-10.1-4.7-12.9-5.8l-5.3-2.4l0.9,4.2c0.4,2.3,1,4.7,1.2,5.3
		c0.5,1.7,7.3,32.1,8.1,36.2c0.1,0.7,0.1,0.7,17.1,7.9l5,2.2l1.7-1.6c0.9-0.9,2.4-2,3.4-2.5c2-1.1,6.3-2.8,7.4-2.8
		c0.4,0,1-0.1,1.3-0.3c0.6-0.4,1.3-26.2,0.6-26.7C209.1,160.3,192,152.1,181.1,147.2z M204.9,183.8c-2.4,0.7-5.4,2-6.8,2.8
		c-1.2,0.6-2.7,1.8-3.8,2.8l-2.3-1c-8.1-3.4-12.7-5.4-14.8-6.4c-1.6-7.4-7.3-33.1-7.9-34.9c0-0.1,0-0.1,0-0.2c0-0.1-0.1-0.2-0.1-0.3
		c1.4,0.6,3.1,1.4,4.8,2.2l0.1,0c1.8,0.8,3.6,1.6,5.2,2.4c9.4,4.2,21.5,10,26.1,12.3C205.5,168.1,205.2,178.7,204.9,183.8z"/>
	<path fill="#C7E6ED" d="M368.3,242.9c-2.7,0.5-12.1,3.6-17.7,5.8c-3.1,1.2-8.6,3.4-12.3,4.7l-6.7,2.5l-6.9-3.2
		c-3.8-1.7-11.8-5.5-17.7-8.3c-5.9-2.7-11.9-5.5-13.3-6.2c-1.4-0.6-2.6-1.2-2.6-1.3c0-0.1,1.4-1.1,3.3-2.1
		c8.3-4.8,30.8-21.4,34.9-25.8c2-2.2,2.7-3.2,3.2-4.8c0.8-2.8,0.4-5-1.1-7c-1.8-2.4-3.2-3.2-8.7-4.9c-4.1-1.2-30.2-9.8-31.8-10.4
		c-1.2-0.5-1.7-0.2,16.8-9.6l14.1-7.1l2.9,1.8c5.5,3.5,25.6,14.7,33.4,18.4c4.6,2.2,6.8,2.2,10.1,0c3.7-2.4,4-8.9,0.7-12
		c-0.6-0.5-5.9-3.6-12-6.8c-15.7-8.3-18.3-9.8-18.2-10.3c0.1-0.5,11.2-6.5,12-6.6c1.3,0,3.4-1.2,5-2.8c2.2-2.2,3.1-5,2.4-7.8
		c-0.6-2.6-3.2-5.2-5.6-5.9c-3.1-0.9-4.8-0.3-11.8,3.4c-3.5,1.9-6.5,3.4-6.5,3.3c-0.5-0.5,4.5-16.5,6.8-21.6c1.5-3.4,1.4-6.5-0.3-9
		c-2.8-4-9.2-4.6-12.5-1c-2.1,2.2-5.8,12.8-9.3,25.9c-1.1,4.2-2.7,9.8-3.4,12.3l-1.4,4.5l-13.4,6.8c-7.3,3.7-15.9,8-18.9,9.6
		c-4,2.1-5.5,2.7-5.5,2.3c-0.1-0.3,0.1-3,0.3-5.9c0.5-6.5,0.5-17.7,0.1-32.1c-0.4-13.6-1.1-17-4.2-20.1c-1.9-1.9-3.2-2.5-5.8-2.5
		c-2.7,0-2.8,0.1-11.3,5.6c-7.8,5.2-11.9,8.2-18,13.5c-2.6,2.2-6.1,5.1-7.8,6.5l-3.2,2.6v-4.9c0-2.7-0.1-8.8-0.3-13.5l-0.2-8.7
		l10.2-6.8c5.6-3.7,13.4-8.8,17.2-11.3c6.1-3.9,7.2-4.7,8-6.3c2.2-3.8,0.9-8.7-2.7-10.8c-2.4-1.4-4.8-1.6-7-0.6
		c-1.4,0.6-19,11.6-23.3,14.5c-0.9,0.6-1.7,1.1-1.9,1.1s-0.1-4.7-0.1-10.3l0.3-10.3l-1.1-2c-1.7-3.4-5.7-5-9.5-3.9
		c-1.9,0.6-3.9,2.3-4.8,4.1c-0.4,0.9-0.6,3.2-1,9.8l-0.4,8.6l-3.8-4.1c-3.8-4-5.6-6.2-8.9-10.3c-2.2-2.8-4.3-3.9-7.3-3.7
		c-3.8,0.2-6.3,2.4-7.3,6.2c-1.2,4.4,1.7,8.5,17,24.3c4.8,5,9.1,9.4,9.5,10c0.8,0.9,0.8,1.7,1,17.6l0.3,16.7l-2-0.9
		c-1.1-0.5-4.1-1.9-6.5-3.1c-2.5-1.1-11-5.1-18.9-8.7c-7.9-3.6-17.7-8-21.8-10c-8.8-4-10.6-4.5-13.8-3.1c-3.4,1.4-5.7,5.2-5.2,8.5
		c0.1,0.7,0.8,2.9,1.5,4.8c1.7,4.5,3,9.2,4,14.4c0.4,2.3,1.1,5.4,1.6,6.9c0.8,2.9,5.1,22.1,5.5,24.2c0.2,1.2,0.2,1.2-0.6,1
		c-0.9-0.3-7-2.9-28.5-12.1c-4.7-2.1-10.5-4.5-12.7-5.4l-4-1.7l-0.9-3.6c-3.8-16.7-9.9-40.1-10.9-41.8c-1.7-2.7-6-4.2-9.2-3.2
		c-3.2,1-5.5,4.2-5.5,7.5c0,0.9,0.6,4.2,1.4,7.2c2.6,9.6,6.5,25.7,6.3,25.9c-0.2,0.1-11.1-4.4-15.7-6.6c-4.5-2.1-8.7-1.3-11.1,2.2
		c-2,2.8-1.8,7.3,0.4,10c1.1,1.3,6.1,3.8,15.4,7.7c2.9,1.2,5.5,2.4,5.6,2.5c0.5,0.4-13.4,7-20.2,9.4c-2.4,0.9-4.5,1.9-5.4,2.7
		c-5.7,4.8-2.3,13.9,5.2,13.9c2.9,0,9.3-2.4,19.4-7.3c3-1.4,8.7-4,12.6-5.7c4-1.7,7.7-3.4,8.3-3.8c1.1-0.6,1.1-0.6,7,1.8
		c3.2,1.3,10.6,4.5,16.3,7c5.7,2.5,10.9,4.7,11.5,5c1,0.4,1,0.4,0.3,0.9c-0.4,0.3-3.4,1.9-6.5,3.6c-19.8,10.6-24.2,13.1-30.5,17.3
		c-5.9,4-8,6.8-8,10.7c-0.1,4.1,2,6.7,7,8.6c6.5,2.5,33.4,11,37.9,12c1.7,0.4,1.8,0.3-9,5.8c-6.8,3.5-15.5,8.1-22,11.6l-3.7,2
		l-12.7-5c-7-2.7-16.3-6.5-20.6-8.3c-9-3.8-10.1-4-13.1-2.4c-5.9,3.2-5.5,11.6,0.6,14.6c2,1,16.9,7.1,21.9,9.1c2.7,1,4.9,1.9,5,1.9
		c0.1,0.1-6.5,3.9-14.8,8.5c-4.2,2.3-5.5,4-5.7,7c-0.2,2.7,0.6,5,2.6,6.8c1.9,1.7,2.9,2.1,5.4,2.1c2.4,0,4.2-0.8,12.2-5.4
		c6.4-3.6,8.8-4.9,8.8-4.6c0,0.1-1.1,5.2-2.4,11.2c-3.2,14.9-3.4,15.4-3.2,17.8c0.6,8,12.1,9.8,15.2,2.4c0.3-0.8,0.8-2.7,1.1-4.3
		c0.3-1.7,1.6-7.6,2.8-13.3c1.2-5.6,2.9-13.2,3.6-17c0.7-3.7,1.5-6.9,1.8-7.2c0.6-0.5,5.1-3,15.4-8.3c4.2-2.2,11.5-6,16.1-8.5
		c4.6-2.4,8.5-4.5,8.6-4.5c0.1,0,0.2,1.8,0.2,4c0,2.3,0.3,6.9,0.6,10.3c0.3,3.4,0.8,10.9,1.1,16.6c1.3,23.9,1.6,25.4,5,28.3
		c2.4,2.1,6.3,2.7,8.8,1.4c0.4-0.1,5.1-3.7,10.6-7.8c5.5-4.1,13.6-10,18-13.1c10.5-7.3,10.6-7.4,10.7-7.3c0.1,0.1,0.2,7.9,0.2,17.4
		l0.1,17.3l-3.2,2.4c-5.3,4-26.2,21.5-27.4,23c-2.2,2.7-2.6,6.1-0.9,9.3c1.4,2.7,3.4,4.2,6.3,4.4c3,0.2,5-0.6,7.3-3.2
		c1.8-2,18-15.7,18.5-15.7c0.4,0,0.9,9.6,0.8,16.1c-0.1,4.5,0.1,5.2,0.8,6.8c2.4,4.9,9.4,6,13.1,2c2.2-2.4,2.2-2.7,2.2-13.8
		l-0.1-10.3l1.6,1.3c0.9,0.7,4.5,4.3,8,8c8.5,8.8,11.4,10.9,15.2,11c5.7,0.1,10-5.9,7.8-11.2c-0.8-1.8-1.4-2.6-3.8-4.1
		c-1-0.6-8.2-7.5-15.9-15.2l-14-13.9l-0.1-17.7c-0.1-16.8,0-17.7,0.6-17.5c4.5,1.4,24.3,8.5,31.7,11.5c15.1,6,20.4,7.6,25.9,7.6
		c3.5,0,5.3-0.6,7.3-2.4c1.9-1.7,2.8-4,2.8-6.8c0-2.2-2.1-8.2-7.9-22.8c-3.3-8.1-7.5-19.9-7.5-20.8c0-0.1,0.1-0.1,0.4-0.1
		c0.4,0,15.2,6.7,22.5,10.2c6.6,3.2,19.4,9.1,22.8,10.6c1.6,0.6,2.9,1.3,2.9,1.3c0.1,0.1,0.4,1.9,0.9,4.2c0.4,2.2,1.6,7.5,2.6,11.6
		c1,4.2,2.7,11.4,3.6,16c0.9,4.7,2,9.1,2.4,9.9c0.4,0.8,1.2,2,2,2.7c5,4.5,13.1,0.8,13.1-5.9c0-1.9-3.1-17-5.1-25.1
		c-0.6-2.7-1.1-5-0.9-5c0.5,0,12.6,5.3,13.8,6c2.7,1.7,6.9,1.2,9.4-0.9c3.4-2.7,4-7.3,1.5-11c-1-1.5-4.2-3.2-12.9-6.9
		c-1.9-0.8-3.5-1.6-3.5-1.7c0-0.5,11.4-4.7,18.2-6.5c5.3-1.5,7.8-6.8,5.5-11.4C375.4,244.3,371.6,242.3,368.3,242.9z M160.6,231.6
		c-0.4,0.1-3.1-0.7-6-1.8c-7.2-2.5-11.7-4-24.1-7.6c-5.7-1.7-10.5-3.2-10.5-3.3c0-0.2,7.7-4.4,19.8-10.9c3.2-1.7,8.5-4.7,12.1-6.8
		c3.5-2.1,6.8-3.8,7.2-3.8c0.4-0.1,6.9,2.5,14.4,5.7l13.6,5.8l-0.1,1.2c-0.1,0.7-0.2,2.7-0.4,4.6l-0.3,3.3l-12.5,6.8
		C166.8,228.4,160.9,231.5,160.6,231.6z M209.1,265.7l-1,1c-0.6,0.5-3.7,2.7-6.9,4.9c-6.5,4.3-17.4,12-24.2,17
		c-2.4,1.8-4.7,3.2-4.8,3.1c-0.2-0.1-0.4-2.9-0.6-6.1c-0.1-3.3-0.6-10.2-1-15.4c-0.4-5.2-0.8-12.9-0.9-17.2l-0.1-7.8l6.6-3.6
		c6.8-3.7,15.2-8.3,15.4-8.3c0.1,0.1,1.3,1.2,2.7,2.7c2,2,3.4,3,6.5,4.5c2.2,1.1,4.7,2.2,5.8,2.5l2,0.6l0.3,2.5
		c0.1,1.4,0.2,6.4,0.2,11.1V265.7z M209,187.5c-0.3,0.1-0.9,0.3-1.3,0.3c-1.1,0-5.4,1.7-7.4,2.8c-0.9,0.5-2.4,1.7-3.4,2.5l-1.7,1.6
		l-5-2.2c-17-7.2-17-7.2-17.1-7.9c-0.8-4.1-7.6-34.5-8.1-36.2c-0.2-0.6-0.8-3-1.2-5.3l-0.9-4.2l5.3,2.4c2.7,1.1,8.5,3.9,12.9,5.8
		c10.8,4.9,28,13.1,28.5,13.6C210.3,161.4,209.6,187.1,209,187.5z M225.9,174.1l0.4-14.9l2-1.9c1.1-1,5.7-5,10.3-8.8
		c4.6-3.8,9.3-7.8,10.6-8.9c1.2-1.1,4.2-3.4,6.6-5.2l4.3-3.3l0.2,3.5c0.2,1.9,0.3,8.3,0.4,14c0.1,6.2-0.2,13.6-0.5,18
		c-0.3,4.1-0.6,8.7-0.6,10.3l-0.1,2.8l-11.4,6c-6.3,3.3-12.1,6.3-12.9,6.8l-1.6,0.8l-2.2-1.1c-1.2-0.6-2.9-1.4-3.9-1.7
		c-0.9-0.3-1.7-0.6-1.8-0.9C225.7,189.2,225.7,182.3,225.9,174.1z M262.1,279c-5.8-2.3-14.2-5.5-18.8-7c-4.5-1.6-10.3-3.7-13.1-4.7
		l-5-1.9v-7.3c0-4.1-0.1-9.3-0.2-11.6l-0.3-4.2l2.8-1.8c3.6-2.3,5.7-4.2,7.8-7c0.9-1.2,1.9-2.3,2.1-2.3c0.2,0,1.3,0.4,2.3,0.9
		c1.1,0.5,5.4,2.4,9.6,4.2c4.2,1.8,7.9,3.5,8.1,3.7c0.2,0.2,0.7,1.5,1.1,2.9c1.7,6,7.4,22.8,10.7,31c2,5,3.5,9.1,3.4,9.1
		C272.7,283.1,267.9,281.3,262.1,279z M275,227.8l-1.8,1.1l-9.8-4.2c-5.3-2.4-12.2-5.3-15.2-6.7l-5.5-2.4l-0.2-3.3
		c-0.1-1.8-0.4-3.7-0.5-4.2c-0.2-1.1-1.3-0.4,21.5-12.4l7.9-4.2l1.4,0.7c0.9,0.5,3.3,1.5,5.4,2.4c2.2,0.9,10,3.7,17.5,6.2l13.5,4.6
		l-7.3,5.3c-9.2,6.7-12.8,9.1-19.5,12.9C279.2,225.3,276,227.2,275,227.8z"/>
</g>
</svg>
